<svg xmlns="http://www.w3.org/2000/svg" width="1600" height="1050" viewBox="0 0 1600 1050"><rect width="100%" height="100%" fill="white"/><rect x="565" y="365" width="470" height="215" rx="15" fill="#DDEFF0" stroke="#147D85" stroke-width="2"/><text x="800.0" y="443.8" fill="#163952" font-size="41" font-family="Vazirmatn,Tahoma,sans-serif" text-anchor="middle" dominant-baseline="central" direction="rtl" style="unicode-bidi:plaintext">برنامهٔ یکپارچهٔ</text><text x="800.0" y="501.2" fill="#163952" font-size="41" font-family="Vazirmatn,Tahoma,sans-serif" text-anchor="middle" dominant-baseline="central" direction="rtl" style="unicode-bidi:plaintext">مدیریت امنیت سایبری</text><rect x="65" y="75" width="460" height="120" rx="15" fill="#EDF5F7" stroke="#147D85" stroke-width="2"/><text x="295.0" y="135.0" fill="#163952" font-size="32" font-family="Vazirmatn,Tahoma,sans-serif" text-anchor="middle" dominant-baseline="central" direction="rtl" style="unicode-bidi:plaintext">مخابرات و پشتیبانی IT</text><polyline points="295,195 565,365" fill="none" stroke="#147D85" stroke-width="4"/><polygon points="565,365 546.1188769731036,362.87792713527506 554.9255824934658,348.89080660293524" fill="#147D85"/><rect x="570" y="75" width="460" height="120" rx="15" fill="#EDF5F7" stroke="#147D85" stroke-width="2"/><text x="800.0" y="135.0" fill="#163952" font-size="32" font-family="Vazirmatn,Tahoma,sans-serif" text-anchor="middle" dominant-baseline="central" direction="rtl" style="unicode-bidi:plaintext">امنیت فناوری اطلاعات</text><polyline points="800,195 800,365" fill="none" stroke="#147D85" stroke-width="4"/><polygon points="800,365 791.7356548518866,347.89150505529915 808.2643451481134,347.89150505529915" fill="#147D85"/><rect x="1070" y="75" width="460" height="120" rx="15" fill="#EDF5F7" stroke="#147D85" stroke-width="2"/><text x="1300.0" y="135.0" fill="#163952" font-size="32" font-family="Vazirmatn,Tahoma,sans-serif" text-anchor="middle" dominant-baseline="central" direction="rtl" style="unicode-bidi:plaintext">تأمین‌کنندگان</text><polyline points="1300,195 1035,365" fill="none" stroke="#147D85" stroke-width="4"/><polygon points="1035,365 1044.937746993523,348.80613743751275 1053.862490909331,362.7182382474489" fill="#147D85"/><rect x="65" y="760" width="460" height="120" rx="15" fill="#EDF5F7" stroke="#147D85" stroke-width="2"/><text x="295.0" y="820.0" fill="#163952" font-size="32" font-family="Vazirmatn,Tahoma,sans-serif" text-anchor="middle" dominant-baseline="central" direction="rtl" style="unicode-bidi:plaintext">بهره‌برداری و نگهداری</text><polyline points="295,760 565,580" fill="none" stroke="#147D85" stroke-width="4"/><polygon points="565,580 555.3491056209157,596.3664363159412 546.1806378702527,582.6137346899467" fill="#147D85"/><rect x="570" y="760" width="460" height="120" rx="15" fill="#EDF5F7" stroke="#147D85" stroke-width="2"/><text x="800.0" y="820.0" fill="#163952" font-size="32" font-family="Vazirmatn,Tahoma,sans-serif" text-anchor="middle" dominant-baseline="central" direction="rtl" style="unicode-bidi:plaintext">پشتیبانی IACS</text><polyline points="800,760 800,580" fill="none" stroke="#147D85" stroke-width="4"/><polygon points="800,580 808.2643451481134,597.1084949447009 791.7356548518866,597.1084949447009" fill="#147D85"/><rect x="1070" y="760" width="460" height="120" rx="15" fill="#EDF5F7" stroke="#147D85" stroke-width="2"/><text x="1300.0" y="820.0" fill="#163952" font-size="32" font-family="Vazirmatn,Tahoma,sans-serif" text-anchor="middle" dominant-baseline="central" direction="rtl" style="unicode-bidi:plaintext">ایمنی فرایند</text><polyline points="1300,760 1035,580" fill="none" stroke="#147D85" stroke-width="4"/><polygon points="1035,580 1053.7960279197787,582.7765688248084 1044.508837241923,596.4493773227626" fill="#147D85"/><text x="800.0" y="1005.0" fill="#566775" font-size="29" font-family="Vazirmatn,Tahoma,sans-serif" text-anchor="middle" dominant-baseline="central" direction="rtl" style="unicode-bidi:plaintext">تلفیق دانش و مسئولیت‌ها؛ شکل، چارت سازمانی الزامی نیست.</text></svg>