<svg xmlns="http://www.w3.org/2000/svg" width="1700" height="1250" viewBox="0 0 1700 1250"><rect width="100%" height="100%" fill="white"/><rect x="70" y="70" width="1560" height="195" rx="15" fill="#F8F4DF" stroke="#AA690B" stroke-width="2"/><text x="850" y="115.0" fill="#163952" font-size="38" font-family="Vazirmatn,Tahoma,sans-serif" text-anchor="middle" dominant-baseline="central" direction="rtl" style="unicode-bidi:plaintext">ناحیهٔ سازمانی</text><rect x="445" y="155" width="810" height="75" rx="15" fill="white" stroke="#147D85" stroke-width="2"/><text x="850.0" y="192.5" fill="#163952" font-size="33" font-family="Vazirmatn,Tahoma,sans-serif" text-anchor="middle" dominant-baseline="central" direction="rtl" style="unicode-bidi:plaintext">ایستگاه‌های کاری و سرورهای سازمان</text><polyline points="140,295 1560,295" fill="none" stroke="#566775" stroke-width="4"/><text x="312" y="425.0" fill="#163952" font-size="35" font-family="Vazirmatn,Tahoma,sans-serif" text-anchor="middle" dominant-baseline="central" direction="rtl" style="unicode-bidi:plaintext">کارخانهٔ الف</text><rect x="135" y="480" width="355" height="75" rx="15" fill="white" stroke="#147D85" stroke-width="2"/><text x="312.5" y="517.5" fill="#163952" font-size="30" font-family="Vazirmatn,Tahoma,sans-serif" text-anchor="middle" dominant-baseline="central" direction="rtl" style="unicode-bidi:plaintext">مسیریاب و شبکهٔ کارخانه</text><polyline points="312,295 312,480" fill="none" stroke="#566775" stroke-width="4"/><rect x="135" y="590" width="355" height="75" rx="15" fill="white" stroke="#147D85" stroke-width="2"/><text x="312.5" y="627.5" fill="#163952" font-size="32" font-family="Vazirmatn,Tahoma,sans-serif" text-anchor="middle" dominant-baseline="central" direction="rtl" style="unicode-bidi:plaintext">سرورهای کارخانه</text><polyline points="312,555 312,590" fill="none" stroke="#566775" stroke-width="4"/><polygon points="312,590 303.73565485188664,572.8915050552991 320.26434514811336,572.8915050552991" fill="#566775"/><rect x="165" y="700" width="295" height="70" rx="15" fill="#F8EDDD" stroke="#AA690B" stroke-width="2"/><text x="312.5" y="735.0" fill="#163952" font-size="30" font-family="Vazirmatn,Tahoma,sans-serif" text-anchor="middle" dominant-baseline="central" direction="rtl" style="unicode-bidi:plaintext">دیوارهٔ آتش</text><polyline points="312,665 312,700" fill="none" stroke="#566775" stroke-width="4"/><polygon points="312,700 303.73565485188664,682.8915050552991 320.26434514811336,682.8915050552991" fill="#566775"/><text x="312" y="806.0" fill="#316CA6" font-size="34" font-family="Vazirmatn,Tahoma,sans-serif" text-anchor="middle" dominant-baseline="central" direction="rtl" style="unicode-bidi:plaintext">ناحیهٔ کنترل</text><rect x="125" y="855" width="375" height="75" rx="15" fill="white" stroke="#147D85" stroke-width="2"/><text x="312.5" y="892.5" fill="#163952" font-size="29" font-family="Vazirmatn,Tahoma,sans-serif" text-anchor="middle" dominant-baseline="central" direction="rtl" style="unicode-bidi:plaintext">سرورهای کنترل و نگهداری</text><polyline points="312,770 312,855" fill="none" stroke="#566775" stroke-width="4"/><polygon points="312,855 303.73565485188664,837.8915050552991 320.26434514811336,837.8915050552991" fill="#566775"/><polyline points="145,955 480,955" fill="none" stroke="#566775" stroke-width="3"/><rect x="175" y="995" width="280" height="70" rx="15" fill="white" stroke="#147D85" stroke-width="2"/><text x="315.0" y="1007.6" fill="#163952" font-size="32" font-family="Vazirmatn,Tahoma,sans-serif" text-anchor="middle" dominant-baseline="central" direction="rtl" style="unicode-bidi:plaintext">کنترل‌کننده</text><text x="315.0" y="1052.4" fill="#163952" font-size="32" font-family="Vazirmatn,Tahoma,sans-serif" text-anchor="middle" dominant-baseline="central" direction="rtl" style="unicode-bidi:plaintext">و ورودی/خروجی</text><polyline points="312,955 312,995" fill="none" stroke="#566775" stroke-width="4"/><polygon points="312,995 303.73565485188664,977.8915050552991 320.26434514811336,977.8915050552991" fill="#566775"/><text x="847" y="425.0" fill="#163952" font-size="35" font-family="Vazirmatn,Tahoma,sans-serif" text-anchor="middle" dominant-baseline="central" direction="rtl" style="unicode-bidi:plaintext">کارخانهٔ ب</text><rect x="670" y="480" width="355" height="75" rx="15" fill="white" stroke="#147D85" stroke-width="2"/><text x="847.5" y="517.5" fill="#163952" font-size="30" font-family="Vazirmatn,Tahoma,sans-serif" text-anchor="middle" dominant-baseline="central" direction="rtl" style="unicode-bidi:plaintext">مسیریاب و شبکهٔ کارخانه</text><polyline points="847,295 847,480" fill="none" stroke="#566775" stroke-width="4"/><rect x="670" y="590" width="355" height="75" rx="15" fill="white" stroke="#147D85" stroke-width="2"/><text x="847.5" y="627.5" fill="#163952" font-size="32" font-family="Vazirmatn,Tahoma,sans-serif" text-anchor="middle" dominant-baseline="central" direction="rtl" style="unicode-bidi:plaintext">سرورهای کارخانه</text><polyline points="847,555 847,590" fill="none" stroke="#566775" stroke-width="4"/><polygon points="847,590 838.7356548518866,572.8915050552991 855.2643451481134,572.8915050552991" fill="#566775"/><rect x="700" y="700" width="295" height="70" rx="15" fill="#F8EDDD" stroke="#AA690B" stroke-width="2"/><text x="847.5" y="735.0" fill="#163952" font-size="30" font-family="Vazirmatn,Tahoma,sans-serif" text-anchor="middle" dominant-baseline="central" direction="rtl" style="unicode-bidi:plaintext">دیوارهٔ آتش</text><polyline points="847,665 847,700" fill="none" stroke="#566775" stroke-width="4"/><polygon points="847,700 838.7356548518866,682.8915050552991 855.2643451481134,682.8915050552991" fill="#566775"/><text x="847" y="806.0" fill="#316CA6" font-size="34" font-family="Vazirmatn,Tahoma,sans-serif" text-anchor="middle" dominant-baseline="central" direction="rtl" style="unicode-bidi:plaintext">ناحیهٔ کنترل</text><rect x="660" y="855" width="375" height="75" rx="15" fill="white" stroke="#147D85" stroke-width="2"/><text x="847.5" y="892.5" fill="#163952" font-size="29" font-family="Vazirmatn,Tahoma,sans-serif" text-anchor="middle" dominant-baseline="central" direction="rtl" style="unicode-bidi:plaintext">سرورهای کنترل و نگهداری</text><polyline points="847,770 847,855" fill="none" stroke="#566775" stroke-width="4"/><polygon points="847,855 838.7356548518866,837.8915050552991 855.2643451481134,837.8915050552991" fill="#566775"/><polyline points="680,955 1015,955" fill="none" stroke="#566775" stroke-width="3"/><rect x="710" y="995" width="280" height="70" rx="15" fill="white" stroke="#147D85" stroke-width="2"/><text x="850.0" y="1007.6" fill="#163952" font-size="32" font-family="Vazirmatn,Tahoma,sans-serif" text-anchor="middle" dominant-baseline="central" direction="rtl" style="unicode-bidi:plaintext">کنترل‌کننده</text><text x="850.0" y="1052.4" fill="#163952" font-size="32" font-family="Vazirmatn,Tahoma,sans-serif" text-anchor="middle" dominant-baseline="central" direction="rtl" style="unicode-bidi:plaintext">و ورودی/خروجی</text><polyline points="847,955 847,995" fill="none" stroke="#566775" stroke-width="4"/><polygon points="847,995 838.7356548518866,977.8915050552991 855.2643451481134,977.8915050552991" fill="#566775"/><text x="1382" y="425.0" fill="#163952" font-size="35" font-family="Vazirmatn,Tahoma,sans-serif" text-anchor="middle" dominant-baseline="central" direction="rtl" style="unicode-bidi:plaintext">کارخانهٔ پ</text><rect x="1205" y="480" width="355" height="75" rx="15" fill="white" stroke="#147D85" stroke-width="2"/><text x="1382.5" y="517.5" fill="#163952" font-size="30" font-family="Vazirmatn,Tahoma,sans-serif" text-anchor="middle" dominant-baseline="central" direction="rtl" style="unicode-bidi:plaintext">مسیریاب و شبکهٔ کارخانه</text><polyline points="1382,295 1382,480" fill="none" stroke="#566775" stroke-width="4"/><rect x="1205" y="590" width="355" height="75" rx="15" fill="white" stroke="#147D85" stroke-width="2"/><text x="1382.5" y="627.5" fill="#163952" font-size="32" font-family="Vazirmatn,Tahoma,sans-serif" text-anchor="middle" dominant-baseline="central" direction="rtl" style="unicode-bidi:plaintext">سرورهای کارخانه</text><polyline points="1382,555 1382,590" fill="none" stroke="#566775" stroke-width="4"/><polygon points="1382,590 1373.7356548518867,572.8915050552991 1390.2643451481133,572.8915050552991" fill="#566775"/><rect x="1235" y="700" width="295" height="70" rx="15" fill="#F8EDDD" stroke="#AA690B" stroke-width="2"/><text x="1382.5" y="735.0" fill="#163952" font-size="30" font-family="Vazirmatn,Tahoma,sans-serif" text-anchor="middle" dominant-baseline="central" direction="rtl" style="unicode-bidi:plaintext">دیوارهٔ آتش</text><polyline points="1382,665 1382,700" fill="none" stroke="#566775" stroke-width="4"/><polygon points="1382,700 1373.7356548518867,682.8915050552991 1390.2643451481133,682.8915050552991" fill="#566775"/><text x="1382" y="806.0" fill="#316CA6" font-size="34" font-family="Vazirmatn,Tahoma,sans-serif" text-anchor="middle" dominant-baseline="central" direction="rtl" style="unicode-bidi:plaintext">ناحیهٔ کنترل</text><rect x="1195" y="855" width="375" height="75" rx="15" fill="white" stroke="#147D85" stroke-width="2"/><text x="1382.5" y="892.5" fill="#163952" font-size="29" font-family="Vazirmatn,Tahoma,sans-serif" text-anchor="middle" dominant-baseline="central" direction="rtl" style="unicode-bidi:plaintext">سرورهای کنترل و نگهداری</text><polyline points="1382,770 1382,855" fill="none" stroke="#566775" stroke-width="4"/><polygon points="1382,855 1373.7356548518867,837.8915050552991 1390.2643451481133,837.8915050552991" fill="#566775"/><polyline points="1215,955 1550,955" fill="none" stroke="#566775" stroke-width="3"/><rect x="1245" y="995" width="280" height="70" rx="15" fill="white" stroke="#147D85" stroke-width="2"/><text x="1385.0" y="1007.6" fill="#163952" font-size="32" font-family="Vazirmatn,Tahoma,sans-serif" text-anchor="middle" dominant-baseline="central" direction="rtl" style="unicode-bidi:plaintext">کنترل‌کننده</text><text x="1385.0" y="1052.4" fill="#163952" font-size="32" font-family="Vazirmatn,Tahoma,sans-serif" text-anchor="middle" dominant-baseline="central" direction="rtl" style="unicode-bidi:plaintext">و ورودی/خروجی</text><polyline points="1382,955 1382,995" fill="none" stroke="#566775" stroke-width="4"/><polygon points="1382,995 1373.7356548518867,977.8915050552991 1390.2643451481133,977.8915050552991" fill="#566775"/><text x="850.0" y="1205.0" fill="#566775" font-size="29" font-family="Vazirmatn,Tahoma,sans-serif" text-anchor="middle" dominant-baseline="central" direction="rtl" style="unicode-bidi:plaintext">نمونهٔ ساده‌شده؛ مرز ناحیه، مسیر ارتباط و سیاست هر مرز باید در پروژه تعیین شود.</text></svg>